<svg width="100" height="200" viewBox="0 0 100 200" fill="none" xmlns="http://www.w3.org/2000/svg">
<path d="M48.5308 42.5906C49.3227 41.7333 50.6773 41.7333 51.4692 42.5906L53.2842 44.5557C53.8703 45.1901 54.7974 45.3767 55.5833 45.0183L58.6875 43.6026C59.8599 43.0679 61.2246 43.7652 61.4783 45.0286L61.6967 46.1166C61.9025 47.1413 62.8625 47.8349 63.9 47.7082L66.8127 47.3527C68.2472 47.1775 69.3263 48.6313 68.7434 49.9537V49.9537C68.2513 51.0699 68.9469 52.35 70.1511 52.5446L71.7502 52.803C73.2492 53.0452 73.7419 54.956 72.5469 55.8928V55.8928C71.5474 56.6765 71.6958 58.232 72.8255 58.8125L74.1704 59.5035C75.3077 60.0879 75.3249 61.7077 74.2002 62.3161L73.9957 62.4267C73.2265 62.8428 73.0245 63.8553 73.575 64.5347V64.5347C74.4364 65.5979 73.4139 67.1373 72.0999 66.7555L70.2022 66.204C69.7487 66.0723 69.2633 66.1052 68.8318 66.297L66.1321 67.4968C65.4385 67.8051 64.6302 67.6942 64.0453 67.2104L60.231 64.056C59.2568 63.2504 57.7889 63.5393 57.1928 64.654L56.6766 65.6191C56.1112 66.6763 54.7491 67.0019 53.7666 66.3147L51.1464 64.4819C50.458 64.0003 49.542 64.0003 48.8536 64.4819L46.2334 66.3147C45.2509 67.0019 43.8888 66.6763 43.3234 65.6191L43.2891 65.5551C42.5627 64.1968 40.6379 64.1351 39.8259 65.4441L38.1348 68.1705C37.522 69.1584 36.199 69.4175 35.2589 68.7337L32.2588 66.5518C31.7781 66.2022 31.1667 66.0846 30.5906 66.2307L27.8698 66.921C26.5109 67.2658 25.4967 65.6805 26.3793 64.5912V64.5912C26.9536 63.8824 26.7428 62.8262 25.9404 62.3921L25.7998 62.3161C24.6751 61.7077 24.6923 60.0879 25.8296 59.5035L27.1745 58.8125C28.3042 58.232 28.4526 56.6765 27.4531 55.8928V55.8928C26.2581 54.956 26.7508 53.0452 28.2498 52.803L29.8489 52.5446C31.0531 52.35 31.7487 51.0699 31.2566 49.9537V49.9537C30.6737 48.6313 31.7528 47.1775 33.1873 47.3527L36.1 47.7082C37.1375 47.8349 38.0975 47.1413 38.3033 46.1166L38.5217 45.0286C38.7754 43.7652 40.1401 43.0679 41.3125 43.6026L44.4167 45.0183C45.2026 45.3767 46.1297 45.1901 46.7158 44.5557L48.5308 42.5906Z" fill="{{ hair }}" stroke="{{ hairOutline }}" stroke-width="4"/>
</svg>
