<svg width="100" height="200" viewBox="0 0 100 200" fill="none" xmlns="http://www.w3.org/2000/svg">
<path d="M29.5 70C27.7342 75.616 28.0016 77.8895 28 83C27.9969 92.806 32.5 101.5 32.5 101.5C32.5 101.5 24.0396 91.5919 21 84C16.4856 72.7246 17.9512 64.5465 23 53.5C29.0004 40.3714 37.0957 39.5612 51.5 40.5C63.296 41.2688 71.6391 45.7342 77.5 56C83.4055 66.3439 82.792 75.8292 77.5 86.5C74.366 92.8194 65.5 100 65.5 100C65.5 100 69.7213 94.8769 71 85.5C71.7123 80.2763 73.6734 75.4995 72 70.5C68.8368 61.0493 63.5605 56.9717 52 56C46.639 55.5494 41.0278 67.2019 37.5 69C33.1391 71.2227 31.3249 64.196 29.5 70Z" fill="{{ hair }}" stroke="{{ hairOutline }}" stroke-width="4" stroke-linejoin="round"/>
</svg>
